<svg width="30" height="30" viewBox="0 0 30 30" fill="none" xmlns="http://www.w3.org/2000/svg">
<path d="M28.125 1.89583C27.3125 1.08333 26 1.08333 25.1875 1.89583L15 12.0625L4.8125 1.875C4 1.0625 2.6875 1.0625 1.875 1.875C1.0625 2.6875 1.0625 4 1.875 4.8125L12.0625 15L1.875 25.1875C1.0625 26 1.0625 27.3125 1.875 28.125C2.6875 28.9375 4 28.9375 4.8125 28.125L15 17.9375L25.1875 28.125C26 28.9375 27.3125 28.9375 28.125 28.125C28.9375 27.3125 28.9375 26 28.125 25.1875L17.9375 15L28.125 4.8125C28.9167 4.02083 28.9167 2.6875 28.125 1.89583Z" fill="#8C9FB1" stroke="#8C9FB1" stroke-width="2"/>
</svg>
