<svg width="130" height="99" viewBox="0 0 130 99" fill="none" xmlns="http://www.w3.org/2000/svg">
<path d="M59.4417 72.7949C59.4557 76.2224 58.7301 79.6124 57.3147 82.7327C55.8994 85.853 53.8276 88.6298 51.2415 90.8729C45.692 95.9474 38.3988 98.6741 30.8885 98.4822C21.3544 98.4822 13.8266 95.1569 8.30512 88.5064C2.78939 81.8935 -0.157562 73.5069 0.00649888 64.8899C0.00649888 44.259 5.65372 28.7338 16.9482 18.3142C28.2426 7.89472 40.7452 2.12618 54.456 1.00862V23.6391C47.5467 24.3764 41.0056 27.1309 35.6446 31.5605C32.8857 33.629 30.6129 36.2785 28.9864 39.3225C27.3599 42.3664 26.4193 45.7307 26.2308 49.1784C28.5079 48.0669 31.0127 47.5041 33.5454 47.5349C41.7347 47.5349 48.098 49.8632 52.6355 54.5196C54.9276 56.958 56.7103 59.8306 57.8791 62.969C59.0479 66.1073 59.5792 69.448 59.4417 72.7949ZM129.144 72.7949C129.161 76.2229 128.437 79.614 127.021 82.7347C125.606 85.8555 123.532 88.6319 120.943 90.8729C115.394 95.9474 108.101 98.6741 100.59 98.4822C91.0781 98.4822 83.6105 95.1569 78.1874 88.5064C72.738 81.8621 69.8306 73.4888 69.9872 64.8899C69.9872 44.259 75.5742 28.7338 86.7484 18.3142C97.9226 7.89472 110.409 2.10425 124.207 0.942871V23.5733C117.313 24.3392 110.795 27.1165 105.461 31.5605C102.682 33.6167 100.388 36.2613 98.7443 39.3063C97.1003 42.3513 96.1459 45.7219 95.9491 49.1784C98.2202 48.0665 100.72 47.5037 103.247 47.5349C111.426 47.5349 117.789 49.8632 122.337 54.5196C124.63 56.9572 126.411 59.8301 127.577 62.9689C128.744 66.1077 129.271 69.4487 129.127 72.7949H129.144Z" fill="#F3F5F7" fill-opacity="0.3"/>
</svg>
